<svg xmlns="http://www.w3.org/2000/svg" width="105" height="45" viewBox="0 0 142 60" xmlns:xlink="http://www.w3.org/1999/xlink"><defs><path id="a" d="M.06 59.94V.598h141.672V59.94z"></path></defs><g fill="none" fill-rule="evenodd"><mask id="b" fill="#fff"><use xlink:href="#a"></use></mask><path fill="#DC0000" d="M141.732 50.944c0 4.981-4.074 9.056-9.054 9.056H9.055C4.076 60 0 55.925 0 50.944V9.653C0 4.673 4.076.598 9.055.598h123.623c4.98 0 9.054 4.075 9.054 9.055v41.291" mask="url(#b)"></path><path fill="#FFF" d="M127.184 39.326c-.174.212-.434.468-.573.622-1.021 1.113-2.246 2.049-3.64 2.744-.352.177-.711.337-1.075.48 1.524-.853 2.852-1.962 3.94-3.27-.537-.149-1.117-.513-1.705-.988-.961-.776-1.637-1.609-1.516-2.397.16-.166.313-.337.459-.517 2.791-3.444 2.42-8.43-.732-11.437.781.107 1.601-.568 2.371-1.52.74-.912 1.226-1.818 1.029-2.546 5.358 4.858 6.051 13.141 1.442 18.829zm-10.68-16.166c1.715 0 3.394.596 4.728 1.676 3.221 2.608 3.719 7.351 1.108 10.569-1.434 1.77-3.565 2.785-5.844 2.785-1.717 0-3.396-.595-4.73-1.677-1.561-1.262-2.536-3.057-2.745-5.055-.21-1.996.372-3.954 1.637-5.513 1.434-1.77 3.565-2.785 5.846-2.785zm-10.691-1.137c.187-.23.38-.449.578-.665.709-.124 1.572.344 2.437 1.048.686.552 1.221 1.134 1.432 1.709.832-.659 1.787-1.168 2.84-1.472.382-.111.771-.194 1.162-.248-1.557.507-2.926 1.403-4.008 2.58-.098.105-.195.213-.289.326-.035.044-.069.089-.102.131-1.381 1.742-2.015 3.911-1.781 6.126.213 2.048 1.152 3.903 2.645 5.294-.827-.227-1.709.471-2.532 1.488-.691.851-1.156 1.701-1.052 2.402-5.254-4.871-5.905-13.073-1.33-18.719zm-.799-.648c-5.131 6.33-4.153 15.651 2.179 20.779 2.625 2.126 5.926 3.296 9.297 3.296 4.485 0 8.674-1.995 11.492-5.475 5.131-6.33 4.155-15.652-2.177-20.78-2.625-2.126-5.926-3.295-9.299-3.295-4.483 0-8.672 1.994-11.492 5.475zM73.117 32.049h-.119c-2.346 0-3.439-1.124-3.439-3.547 0-2.386 1.121-3.547 3.439-3.547h.141c2.269.027 3.377 1.192 3.377 3.547 0 2.395-1.077 3.518-3.399 3.547zm.031-10.092c-4.847 0-9.242 1.586-9.242 7.036 0 2.581 1.487 4.34 3.559 5.313 0 0 .053.025.129.059l-.555.394c-1.502 1.014-3.117 2.455-3.117 4.473 0 1.535 1.113 2.477 2.367 2.933 1.668.659 3.758.586 5.258.625.771.034 3.387-.262 4.603.185.409.181.77.59.77 1.074 0 .934-1.459 3.485-1.459 3.485h5.512l.261-.575.862-1.92c.281-.684.386-1.154.386-1.813v-.051c-.185-4.74-5.759-4.705-6.82-4.776l-3.662-.1s-1.982.1-1.982-1.179c0-.834.836-1.527 1.744-2.099 0 0 1.261.108 2.275.108 4.637 0 8.092-1.967 8.092-6.136 0-1.642-.875-3.156-1.201-3.734l2.615.132v-3.152h-6.385s-1.703-.282-4.01-.282zM52.73 33.667c-.132-.411-3.527-10.456-3.853-11.428h-6.586c.76 1.67 7.486 16.425 7.535 16.548L46.1 46.349l6.087.003 11.014-24.113h-6.619L52.73 33.667zm-23.736-10.62v15.409h5.772V26.618s1.75-.393 3.478-.393c.985 0 2.031.122 2.031.122v-4.283s-1.412-.063-1.974-.063c-5.662 0-9.307 1.046-9.307 1.046zM8.828 20.948h6.535v17.511h5.948V20.948h6.595v-4.062H8.828v4.062zm83.549 28.204h1.504v-38.57h-1.504v38.57z"></path></g></svg>